<svg width="28" height="28" viewBox="0 0 28 28" fill="none" xmlns="http://www.w3.org/2000/svg">
<path d="M16.3333 10.5V5.83334C16.3333 4.90509 15.9646 4.01485 15.3082 3.35847C14.6518 2.70209 13.7616 2.33334 12.8333 2.33334L8.16665 12.8333V25.6667H21.3266C21.8894 25.673 22.4354 25.4758 22.8642 25.1113C23.293 24.7469 23.5756 24.2397 23.66 23.6833L25.27 13.1833C25.3207 12.8489 25.2982 12.5075 25.2039 12.1826C25.1096 11.8578 24.9458 11.5574 24.7238 11.3021C24.5019 11.0469 24.2271 10.8429 23.9185 10.7044C23.6099 10.5659 23.2749 10.4962 22.9366 10.5H16.3333ZM8.16665 25.6667H4.66665C4.04781 25.6667 3.45432 25.4208 3.01673 24.9833C2.57915 24.5457 2.33331 23.9522 2.33331 23.3333V15.1667C2.33331 14.5478 2.57915 13.9543 3.01673 13.5168C3.45432 13.0792 4.04781 12.8333 4.66665 12.8333H8.16665" fill="black"/>
<path d="M8.16665 25.6667H4.66665C4.04781 25.6667 3.45432 25.4208 3.01673 24.9833C2.57915 24.5457 2.33331 23.9522 2.33331 23.3333V15.1667C2.33331 14.5478 2.57915 13.9543 3.01673 13.5168C3.45432 13.0792 4.04781 12.8333 4.66665 12.8333H8.16665M16.3333 10.5V5.83334C16.3333 4.90509 15.9646 4.01485 15.3082 3.35847C14.6518 2.70209 13.7616 2.33334 12.8333 2.33334L8.16665 12.8333V25.6667H21.3266C21.8894 25.673 22.4354 25.4758 22.8642 25.1113C23.293 24.7469 23.5756 24.2397 23.66 23.6833L25.27 13.1833C25.3207 12.8489 25.2982 12.5075 25.2039 12.1826C25.1096 11.8578 24.9458 11.5574 24.7238 11.3021C24.5019 11.0469 24.2271 10.8429 23.9185 10.7044C23.6099 10.5659 23.2749 10.4962 22.9366 10.5H16.3333Z" stroke="white" stroke-width="2" stroke-linecap="round" stroke-linejoin="round"/>
</svg>
