<svg width="28" height="28" viewBox="0 0 28 28" fill="none" xmlns="http://www.w3.org/2000/svg">
<path d="M11.6666 17.5V22.1667C11.6666 23.0949 12.0354 23.9852 12.6918 24.6415C13.3481 25.2979 14.2384 25.6667 15.1666 25.6667L19.8333 15.1667V2.33334H6.67331C6.11059 2.32698 5.56453 2.5242 5.13575 2.88866C4.70697 3.25313 4.42435 3.76028 4.33997 4.31667L2.72997 14.8167C2.67922 15.1511 2.70177 15.4925 2.79608 15.8174C2.89039 16.1422 3.05419 16.4427 3.27614 16.6979C3.49809 16.9531 3.77288 17.1571 4.08147 17.2956C4.39007 17.4341 4.72508 17.5038 5.06331 17.5H11.6666ZM19.8333 2.33334H22.9483C23.6086 2.32166 24.2502 2.55283 24.7513 2.98296C25.2524 3.41309 25.5781 4.01224 25.6666 4.66667V12.8333C25.5781 13.4878 25.2524 14.0869 24.7513 14.517C24.2502 14.9472 23.6086 15.1783 22.9483 15.1667H19.8333" fill="black"/>
<path d="M19.8333 2.33334H22.9483C23.6086 2.32166 24.2502 2.55283 24.7513 2.98296C25.2524 3.41309 25.5781 4.01224 25.6666 4.66667V12.8333C25.5781 13.4878 25.2524 14.0869 24.7513 14.517C24.2502 14.9472 23.6086 15.1783 22.9483 15.1667H19.8333M11.6666 17.5V22.1667C11.6666 23.0949 12.0354 23.9852 12.6918 24.6415C13.3481 25.2979 14.2384 25.6667 15.1666 25.6667L19.8333 15.1667V2.33334H6.67331C6.11059 2.32698 5.56453 2.5242 5.13575 2.88866C4.70697 3.25313 4.42435 3.76028 4.33997 4.31667L2.72997 14.8167C2.67922 15.1511 2.70177 15.4925 2.79608 15.8174C2.89039 16.1422 3.05419 16.4427 3.27614 16.6979C3.49809 16.9531 3.77288 17.1571 4.08147 17.2956C4.39007 17.4341 4.72508 17.5038 5.06331 17.5H11.6666Z" stroke="white" stroke-width="2" stroke-linecap="round" stroke-linejoin="round"/>
</svg>
